<?xml version="1.0" encoding="UTF-8"?>
<svg version="1.1" xmlns="http://www.w3.org/2000/svg" width="512" height="512">
<path d="M0 0 C1.35937683 -0.00642014 1.35937683 -0.00642014 2.74621582 -0.01296997 C15.85267851 -0.04525689 28.16491301 0.77253729 41.015625 3.53515625 C44.40335105 4.2396452 46.97147207 4.50851 50.3125 3.3125 C50.93125 2.796875 51.55 2.28125 52.1875 1.75 C55.34931132 -0.38887236 57.58156491 -0.14568501 61.3125 0.3125 C66.58801156 3.48631583 68.57754411 8.07131172 71.125 13.4375 C71.53169922 14.26121094 71.93839844 15.08492187 72.35742188 15.93359375 C75.3125 22.00267857 75.3125 22.00267857 75.3125 24.3125 C76.04823242 24.43471924 76.78396484 24.55693848 77.54199219 24.68286133 C80.2250725 25.29263081 82.21751329 26.1096808 84.640625 27.38671875 C85.43645996 27.8046167 86.23229492 28.22251465 87.05224609 28.65307617 C87.88062988 29.09756104 88.70901367 29.5420459 89.5625 30 C90.41279785 30.44899658 91.2630957 30.89799316 92.13916016 31.3605957 C97.19733237 34.06467143 102.00966596 36.88622037 106.5234375 40.44921875 C109.14078208 41.71217323 110.5379765 41.11061007 113.3125 40.3125 C116.16493539 38.65300991 116.16493539 38.65300991 119.05859375 36.53125 C120.1542386 35.76423967 121.24994358 34.99731522 122.34570312 34.23046875 C124.05055132 33.02222357 125.75282328 31.81048401 127.45336914 30.59619141 C129.1072612 29.41965481 130.76988773 28.25634919 132.43359375 27.09375 C133.90977173 26.0428418 133.90977173 26.0428418 135.41577148 24.97070312 C138.51936865 23.19408012 140.75850411 22.54994303 144.3125 22.3125 C147.45197039 23.45961418 149.61467733 24.25347372 151.48364258 27.08984375 C152.49480384 29.80136425 152.46542542 31.79906924 152.32421875 34.6875 C152.25352173 36.27510132 152.25352173 36.27510132 152.18139648 37.89477539 C152.12153564 39.02262451 152.0616748 40.15047363 152 41.3125 C151.92857788 43.04971313 151.92857788 43.04971313 151.85571289 44.82202148 C151.62072008 50.28776625 151.30428492 55.71864876 150.734375 61.16015625 C149.59302149 70.05333602 149.59302149 70.05333602 151.92578125 78.4375 C153.9255131 80.71872975 155.89218765 82.49726574 158.3125 84.3125 C158.90321289 85.10769043 158.90321289 85.10769043 159.50585938 85.91894531 C162.35623871 88.11758926 164.77768648 87.4433932 168.296875 87.16796875 C168.98952454 87.11933182 169.68217407 87.07069489 170.39581299 87.02058411 C172.61944454 86.86200917 174.84068495 86.68213576 177.0625 86.5 C182.80974664 86.0573605 188.55818069 85.65171762 194.3125 85.3125 C195.01850342 85.26853088 195.72450684 85.22456177 196.4519043 85.17926025 C198.49402695 85.06476472 200.53384339 84.98905633 202.578125 84.92578125 C203.75665039 84.87848877 204.93517578 84.83119629 206.14941406 84.7824707 C209.3125 85.3125 209.3125 85.3125 212.23339844 87.33666992 C214.3902517 90.42378646 215.08902405 92.39611436 214.83065796 96.17498779 C213.81598701 100.3607221 211.277548 103.50865131 208.73828125 106.9140625 C207.58392021 108.55502933 206.43096885 110.19698855 205.27929688 111.83984375 C203.45885474 114.39312111 201.62662127 116.93529811 199.76733398 119.46044922 C192.14652557 129.0468532 192.14652557 129.0468532 188.92016602 140.46118164 C189.67514224 145.13922334 190.76045069 148.65463415 194.03491211 152.15234375 C196.16732911 153.60220608 198.23065243 154.54614435 200.625 155.5 C201.86262085 156.07161865 201.86262085 156.07161865 203.12524414 156.65478516 C204.89854676 157.47369065 206.68117705 158.27264038 208.47167969 159.05322266 C213.47589 161.27148639 218.35251645 163.74507309 223.25 166.1875 C224.19077393 166.64020264 225.13154785 167.09290527 226.10083008 167.55932617 C234.73000599 171.77591792 234.73000599 171.77591792 237.3125 175.3125 C238.08653846 180.73076923 238.08653846 180.73076923 237.3125 183.3125 C233.30046288 188.11818703 228.84669382 190.20180206 223.1796875 192.68359375 C221.38557601 193.51250506 219.59264058 194.34396574 217.80078125 195.17773438 C214.99514279 196.47255002 212.18628871 197.75052841 209.35400391 198.98608398 C198.09201685 203.33150843 198.09201685 203.33150843 190.26708984 211.83056641 C188.97443698 216.88757499 188.45611556 221.55839858 190.6796875 226.40625 C191.4737325 227.57134873 192.31257944 228.7068434 193.1875 229.8125 C193.63206543 230.4506665 194.07663086 231.08883301 194.53466797 231.74633789 C196.08866032 233.96531754 197.6990853 236.13638202 199.3125 238.3125 C201.35659848 241.14071303 203.38242294 243.97970254 205.38720703 246.8359375 C206.72983718 248.74420535 208.09476775 250.63702133 209.48388672 252.51171875 C213.08686181 257.58126868 215.095805 261.16643361 214.71289062 267.47094727 C214.3125 269.3125 214.3125 269.3125 212.6875 271.8125 C207.78071873 274.91151975 202.43223563 274.35853698 196.82421875 273.97265625 C196.12158401 273.92684921 195.41894928 273.88104218 194.69502258 273.83384705 C192.46285685 273.68740068 190.23146137 273.5317845 188 273.375 C183.67709842 273.07945325 179.35435495 272.79135375 175.02856445 272.54125977 C172.84202667 272.40665718 170.65634989 272.24464189 168.47729492 272.01928711 C165.52259662 271.79657738 163.1281936 271.76998625 160.60375977 273.44897461 C158.91159681 275.1096896 157.59504468 276.79794468 156.25 278.75 C155.7746582 279.42957764 155.29931641 280.10915527 154.80957031 280.80932617 C150.47704229 287.61214161 150.30719432 293.83292774 151.0703125 301.67626953 C151.4633479 305.95449159 151.68214991 310.23925615 151.88964844 314.5300293 C152.00326103 316.85186639 152.14122713 319.17266319 152.30566406 321.49145508 C152.75021998 329.55844457 152.75021998 329.55844457 150.453125 333.515625 C146.96435568 336.444154 144.84537854 336.66118296 140.3125 336.3125 C138.29127941 335.35611758 136.28763521 334.36075612 134.3125 333.3125 C130.59525946 343.53858465 127.9698285 353.55724934 126.3125 364.3125 C126.17972656 365.158125 126.04695313 366.00375 125.91015625 366.875 C120.71679401 407.85276231 132.3394745 455.57978975 154.8359375 489.9921875 C158.4826472 495.72273132 160.09545592 500.48959838 159.3125 507.3125 C157.44234906 509.74369623 156.03111655 510.95319173 153.3125 512.3125 C150.43685936 512.41720259 147.58507202 512.46029387 144.70889282 512.45967102 C143.35686534 512.46518605 143.35686534 512.46518605 141.97752416 512.4708125 C138.93894925 512.48187892 135.90040849 512.48569815 132.86181641 512.48950195 C130.69069814 512.49576427 128.51958096 512.50241086 126.34846497 512.50941467 C120.43735005 512.52684365 114.52624323 512.53738116 108.61510897 512.5456202 C104.92549657 512.55076531 101.2358867 512.55684119 97.54627609 512.56313133 C86.01219184 512.5821869 74.47811402 512.59641844 62.94401705 512.6047433 C49.6110514 512.6145244 36.27828517 512.64086518 22.94537795 512.68124419 C12.65151596 512.71135439 2.35770159 512.72620724 -7.9362036 512.72952431 C-14.09001416 512.73188023 -20.24364785 512.74091115 -26.39741135 512.76598549 C-32.18400659 512.78918271 -37.97030743 512.79353314 -43.75693703 512.78322411 C-45.88384413 512.78272663 -48.01076533 512.78910899 -50.13762856 512.80278015 C-53.03541838 512.82036849 -55.93213662 512.8134575 -58.82992554 512.80024719 C-59.67680951 512.81121644 -60.52369347 512.82218568 -61.39624059 512.83348733 C-65.07046126 512.79288771 -67.21532349 512.6733941 -70.18148232 510.40629864 C-71.67914493 508.32411595 -72.53860711 506.65655608 -73.29296875 504.21484375 C-73.54941162 503.42263428 -73.80585449 502.6304248 -74.07006836 501.81420898 C-74.3356958 500.96802002 -74.60132324 500.12183105 -74.875 499.25 C-79.79801489 484.47554691 -85.75376436 470.43718805 -95.6875 458.3125 C-96.72003906 457.00539063 -96.72003906 457.00539063 -97.7734375 455.671875 C-99.93666052 453.00537153 -101.7374075 451.09627686 -104.6875 449.3125 C-111.24325963 449.65204134 -117.16808821 452.08772223 -123.3125 454.25 C-134.94449169 458.24466006 -146.68415806 461.63337287 -158.5625 464.8125 C-159.37889954 465.03154999 -160.19529907 465.25059998 -161.03643799 465.47628784 C-163.37497622 466.10214238 -165.71445877 466.72424872 -168.0546875 467.34375 C-168.75257385 467.52877579 -169.45046021 467.71380157 -170.16949463 467.9044342 C-180.54038653 470.62168835 -189.59375878 471.7721561 -199.6875 467.3125 C-209.54279748 461.44700844 -214.89722269 453.02944741 -218.00390625 442.13671875 C-219.53406182 433.57659131 -219.92762554 423.77313944 -217.6875 415.3125 C-217.30704498 411.92101529 -217.20476058 408.69735521 -217.6875 405.3125 C-219.57892984 402.86255442 -219.57892984 402.86255442 -222.6875 401.3125 C-224.23702104 400.32471426 -225.77816322 399.32371054 -227.3125 398.3125 C-228.06789062 397.838125 -228.82328125 397.36375 -229.6015625 396.875 C-233.24850318 394.14320923 -234.53202909 392.03005804 -235.5 387.5625 C-235.93283535 383.13426139 -234.97179286 379.54311176 -233.6875 375.3125 C-234.39777344 374.76722656 -235.10804688 374.22195313 -235.83984375 373.66015625 C-244.29158554 366.72569769 -244.29158554 366.72569769 -245.0625 361.875 C-245.07409132 355.23317236 -242.0003826 349.29471686 -238.5 343.8125 C-236.17436235 339.32161351 -235.88844243 335.30591931 -235.6875 330.3125 C-236.37199219 330.05855469 -237.05648437 329.80460937 -237.76171875 329.54296875 C-248.33132655 325.09780659 -261.32154273 318.49745213 -266.05859375 307.47265625 C-267.75639999 301.6410609 -267.45386479 296.30894754 -265 290.75 C-261.85726629 285.05379515 -257.76243155 280.02335135 -253.76977539 274.90844727 C-248.34535662 267.95099079 -243.40831389 260.76196846 -238.6875 253.3125 C-238.32237305 252.73918945 -237.95724609 252.16587891 -237.58105469 251.57519531 C-232.35805313 243.30739465 -227.66651302 234.7499675 -223.0625 226.125 C-222.51674316 225.12017578 -221.97098633 224.11535156 -221.40869141 223.08007812 C-220.91030762 222.13197266 -220.41192383 221.18386719 -219.8984375 220.20703125 C-219.44774902 219.35987549 -218.99706055 218.51271973 -218.53271484 217.63989258 C-217.56480892 214.97465653 -217.60199506 213.90114397 -218.6875 211.3125 C-220.81320135 208.99923676 -223.05279093 206.87765191 -225.3984375 204.7890625 C-231.03058335 199.55042903 -235.10705168 194.0027133 -236.07348633 186.19360352 C-236.26800159 176.9471101 -234.25859795 170.16446727 -230.4375 161.8125 C-226.42450883 152.7648375 -223.19009357 143.89432916 -220.6875 134.3125 C-220.27419434 132.75015625 -220.27419434 132.75015625 -219.85253906 131.15625 C-219.31939746 129.14000538 -218.78667619 127.12364955 -218.25439453 125.10717773 C-212.17878933 102.46256551 -202.53649488 81.58818601 -187.6875 63.3125 C-187.23503906 62.74789062 -186.78257812 62.18328125 -186.31640625 61.6015625 C-149.2469612 15.59124859 -85.85103727 7.77294318 -30.6875 1.3125 C-29.8214917 1.20719971 -28.9554834 1.10189941 -28.06323242 0.9934082 C-18.74304524 -0.00785961 -9.36359754 0.03056612 0 0 Z " fill="#438DFE" transform="translate(270.6875,-0.3125)"/>
<path d="M0 0 C0.95003906 0.16757812 1.90007812 0.33515625 2.87890625 0.5078125 C8.64473684 1.64473684 8.64473684 1.64473684 11 4 C9.46166739 7.44882079 7.89031788 10.88158538 6.3125 14.3125 C5.87744141 15.28896484 5.44238281 16.26542969 4.99414062 17.27148438 C4.34155273 18.67817383 4.34155273 18.67817383 3.67578125 20.11328125 C3.28302002 20.97735596 2.89025879 21.84143066 2.4855957 22.73168945 C-0.39049895 27.12311023 -4.67071451 28.50416865 -9.63671875 29.578125 C-16.9914528 30.65338509 -20.99904255 27.96575752 -26.8125 23.75 C-28.22547363 22.78767456 -28.22547363 22.78767456 -29.66699219 21.8059082 C-31.56521774 20.50988614 -33.4539768 19.19987894 -35.33251953 17.87548828 C-38.44688226 15.68579997 -41.6098921 13.57917128 -44.7878418 11.48339844 C-46.63247536 10.26511861 -48.46564624 9.03126603 -50.296875 7.79296875 C-54.19202927 5.20933319 -56.28066518 4.52806652 -61 5 C-63.35859389 6.380511 -63.35859389 6.380511 -65 9 C-65.53170994 12.07249056 -65.42039588 15.07933633 -65.3125 18.1875 C-65.28929687 19.51793335 -65.28929687 19.51793335 -65.265625 20.87524414 C-65.14358276 26.57004004 -64.85119657 32.25283309 -64.5 37.9375 C-64.46068359 38.63133789 -64.42136719 39.32517578 -64.38085938 40.04003906 C-64.1951918 43.240522 -63.95247129 46.40865805 -63.58203125 49.59375 C-63.18497777 54.51951496 -63.23647186 57.69830224 -65.7734375 62.0234375 C-69.16821497 65.94555904 -72.00312684 68.59177224 -77.171875 69.6484375 C-80.53440289 69.68865913 -83.66269617 69.42036138 -87 69 C-95.33521847 68.08465584 -103.61695965 67.75606358 -112 67.6875 C-113.21300781 67.65849609 -114.42601562 67.62949219 -115.67578125 67.59960938 C-116.83464844 67.59123047 -117.99351562 67.58285156 -119.1875 67.57421875 C-120.23292969 67.55963623 -121.27835938 67.54505371 -122.35546875 67.5300293 C-125.06442666 67.78789097 -125.06442666 67.78789097 -126.92578125 69.58911133 C-128.48946034 73.09850475 -127.91348806 75.30956821 -127 79 C-125.60458873 81.93524465 -125.60458873 81.93524465 -123.71875 84.6953125 C-123.04497314 85.73461914 -122.37119629 86.77392578 -121.67700195 87.84472656 C-120.59938599 89.46846191 -120.59938599 89.46846191 -119.5 91.125 C-118.7696894 92.25398611 -118.04077097 93.38387398 -117.31323242 94.51464844 C-114.29989314 99.15617116 -111.29448989 103.74936477 -107.83203125 108.0703125 C-102.0036289 115.36518156 -102.0036289 115.36518156 -101.9921875 120.51953125 C-103.12922727 126.31332377 -104.47812352 130.1247496 -109 134 C-111.77716511 135.62001102 -114.65991218 136.99157698 -117.5625 138.37109375 C-119.26311338 139.20098225 -120.96363132 140.03106637 -122.6640625 140.86132812 C-125.33496349 142.15327941 -128.00771668 143.44120314 -130.68261719 144.72485352 C-133.27276571 145.9715472 -135.85530951 147.2330187 -138.4375 148.49609375 C-139.63451538 149.06196449 -139.63451538 149.06196449 -140.85571289 149.63926697 C-145.28181822 151.81275825 -148.28985259 153.70937438 -151 158 C-151.75 160.5 -151.75 160.5 -151 163 C-147.02291042 167.80700922 -142.48280071 169.96851937 -136.8671875 172.51171875 C-135.07353925 173.35989266 -133.28059081 174.20954776 -131.48828125 175.06054688 C-128.67949753 176.38138786 -125.8672011 177.69104465 -123.04150391 178.9753418 C-120.30092282 180.22724458 -117.58403061 181.52175925 -114.8671875 182.82421875 C-114.02340546 183.19439621 -113.17962341 183.56457367 -112.31027222 183.94596863 C-108.88134007 185.62235746 -106.59821682 186.86443486 -104.78619385 190.30410767 C-103.05854933 195.61182461 -101.4006856 201.69369747 -103.93649292 206.93603516 C-105.2760079 209.13390519 -106.7172131 211.21925939 -108.21484375 213.3125 C-108.74517715 214.08505127 -109.27551056 214.85760254 -109.82191467 215.65356445 C-111.51194953 218.11328787 -113.22236709 220.55772395 -114.9375 223 C-116.64784692 225.44300856 -118.35286248 227.88896475 -120.04237366 230.34643555 C-121.09163285 231.87216787 -122.15284219 233.38977159 -123.2275238 234.89770508 C-126.20681105 239.22394655 -127.93592563 242.57545521 -128 248 C-125.66315291 251.30979293 -124.18695745 252.76491009 -120.1796875 253.55859375 C-119.08914062 253.51863281 -117.99859375 253.47867188 -116.875 253.4375 C-114.92207031 253.37369141 -114.92207031 253.37369141 -112.9296875 253.30859375 C-105.43285774 252.87221112 -97.94131899 252.31961778 -90.45654297 251.71264648 C-87.30538666 251.45719021 -84.15350499 251.22426487 -81 251 C-79.68902344 250.90074219 -78.37804687 250.80148437 -77.02734375 250.69921875 C-71.86650568 251.21197298 -69.4320639 253.88760021 -65.984375 257.5546875 C-62.00793828 264.45865835 -63.24822049 272.31142599 -64 280 C-64.12955078 281.45212891 -64.12955078 281.45212891 -64.26171875 282.93359375 C-64.42129045 284.56854967 -64.58933897 286.20269924 -64.765625 287.8359375 C-65.11525656 292.55596363 -65.19589708 297.26838123 -65.25 302 C-65.27126953 302.93376465 -65.29253906 303.8675293 -65.31445312 304.82958984 C-65.31896484 305.7108252 -65.32347656 306.59206055 -65.328125 307.5 C-65.34214355 308.69109375 -65.34214355 308.69109375 -65.35644531 309.90625 C-64.90501536 312.55793719 -64.14411326 313.41233885 -62 315 C-54.02670094 316.40757682 -49.30444333 312.55438472 -42.9375 308.125 C-41.9254248 307.44767822 -40.91334961 306.77035645 -39.87060547 306.07250977 C-35.34433437 303.03399741 -30.87577129 299.9319929 -26.48046875 296.70703125 C-17.39688019 290.12084447 -17.39688019 290.12084447 -13.3359375 289.76953125 C-10.98341002 290.25341232 -9.17482658 290.99254357 -7 292 C-5.9078418 292.15823242 -4.81568359 292.31646484 -3.69042969 292.47949219 C1.69673758 294.69907923 2.82042703 298.18635487 5.171875 303.3125 C5.84552094 304.69949097 5.84552094 304.69949097 6.53277588 306.11450195 C7.96169053 309.06584482 9.35710754 312.03150914 10.75 315 C12.16261261 317.96547782 13.58201645 320.92742558 15.0100708 323.88549805 C15.89627088 325.72580533 16.77254848 327.57093027 17.63787842 329.42114258 C18.03549377 330.25540771 18.43310913 331.08967285 18.84277344 331.94921875 C19.18806091 332.68487061 19.53334839 333.42052246 19.88909912 334.1784668 C21.0170175 336.31579355 21.0170175 336.31579355 24 338 C28.7843421 338.58046103 28.7843421 338.58046103 32.94458008 336.54125977 C35.82146371 332.98436682 37.54498565 329.10506347 39.44921875 324.96484375 C40.30531183 323.1679861 41.16277642 321.37178136 42.02148438 319.57617188 C43.36054468 316.75581755 44.68990013 313.93228815 45.99584961 311.09643555 C47.26533313 308.3510969 48.57249972 305.62649177 49.88671875 302.90234375 C50.26519455 302.05542465 50.64367035 301.20850555 51.03361511 300.33592224 C52.67688909 296.98971493 53.84776945 294.61709663 57.20106506 292.82118225 C59.46039762 292.05779277 61.66792053 291.48946447 64 291 C65.14597656 290.65066406 66.29195313 290.30132812 67.47265625 289.94140625 C72.88246217 290.03127014 76.15969679 292.83169767 80.4375 295.9375 C81.26443359 296.51435547 82.09136719 297.09121094 82.94335938 297.68554688 C84.97522538 299.10667859 86.99260154 300.54461227 89 302 C88.54560547 303.25876953 88.54560547 303.25876953 88.08203125 304.54296875 C85.40878484 312.21724228 83.15377807 319.91030446 81.25 327.8125 C81.03964111 328.67061279 80.82928223 329.52872559 80.61254883 330.4128418 C72.80964555 363.67012403 78.45309348 400.78340734 88 433 C88.23074219 433.89074219 88.46148437 434.78148437 88.69921875 435.69921875 C91.95724685 447.92201207 97.53092694 460.05053359 103.87109375 470.96875 C105 473 105 473 106 476 C41.98 476 -22.04 476 -88 476 C-89.65 471.05 -91.3 466.1 -93 461 C-94.19497161 458.21901933 -95.35758669 455.59975891 -96.75 452.9375 C-97.08507568 452.28322021 -97.42015137 451.62894043 -97.76538086 450.95483398 C-103.16027046 440.63650122 -109.60146096 430.99243652 -117 422 C-114.36689758 419.36689758 -111.42219661 418.63373586 -107.96484375 417.49609375 C-106.50818953 417.0030875 -105.05181978 416.50924014 -103.59570312 416.01464844 C-102.83394775 415.75744019 -102.07219238 415.50023193 -101.28735352 415.23522949 C-69.5146985 404.6666382 -69.5146985 404.6666382 -47 381 C-44.11040436 374.9628091 -42.94779293 368.65999249 -44 362 C-45.35762154 359.22435155 -45.35762154 359.22435155 -48 358 C-51.78933956 357.45866578 -53.99355424 357.40157279 -57.3125 359.375 C-59.44674154 362.69493128 -59.79535474 365.6987197 -60.46484375 369.546875 C-62.0491985 376.80946464 -68.27233636 381.76692233 -74 386 C-76.37926667 387.35770649 -78.72661494 388.62979141 -81.17578125 389.84375 C-81.8717189 390.1891684 -82.56765656 390.53458679 -83.28468323 390.89047241 C-91.42577974 394.82592841 -99.8833335 397.73304712 -108.4375 400.625 C-110.17128776 401.21980626 -111.90476079 401.81553063 -113.63793945 402.41210938 C-117.25070145 403.65359984 -120.86567572 404.8883307 -124.48242188 406.11816406 C-129.99031903 407.99291779 -135.48765021 409.89747809 -140.984375 411.8046875 C-173.9635482 423.22385626 -173.9635482 423.22385626 -189.78222656 427.39990234 C-192.18637045 428.05042917 -194.57305797 428.74921877 -196.9609375 429.45703125 C-198.18502319 429.81462524 -198.18502319 429.81462524 -199.43383789 430.17944336 C-200.94817421 430.62225812 -202.4606317 431.07158797 -203.97045898 431.52954102 C-210.12416711 433.29434209 -215.50637147 433.74808856 -221.75 431.875 C-227.42444587 428.60128123 -229.59608854 423.55167756 -231.46484375 417.49609375 C-232.67722811 411.84124989 -232.67137555 406.2239315 -231 400.6875 C-229.01172297 393.35572844 -228.47306958 384.98573379 -232 378.0625 C-235.73018252 372.36626687 -240.81890206 367.84963758 -247 365 C-245.14393939 360.22727273 -245.14393939 360.22727273 -243.8125 358.125 C-242.53359571 354.78017339 -243.16076535 352.44122853 -244 349 C-246.42266378 346.3174782 -246.42266378 346.3174782 -249.5 344.1875 C-254.94438723 340.11122554 -254.94438723 340.11122554 -256 338 C-255.2236455 336.42190612 -254.43697971 334.84797122 -253.59667969 333.30297852 C-248.60088684 323.98952806 -246.67502044 314.83024203 -249.75390625 304.4609375 C-253.23983023 297.79780605 -260.47318286 294.57633957 -266.75878906 290.99902344 C-267.96393847 290.30841761 -269.16548465 289.61148457 -270.36328125 288.90820312 C-272.04799029 287.92016423 -273.74638791 286.95557768 -275.4453125 285.9921875 C-278 284 -278 284 -279.125 281.64453125 C-278.94699607 277.87863555 -277.11514395 275.6785909 -274.875 272.8125 C-274.42415039 272.20647949 -273.97330078 271.60045898 -273.50878906 270.97607422 C-272.01891203 268.97389391 -270.51068407 266.98651628 -269 265 C-255.31279416 246.90052876 -243.56444282 227.59848517 -234 207 C-233.44441406 205.80375 -232.88882813 204.6075 -232.31640625 203.375 C-229.8122083 196.95474176 -230.17805715 190.27499628 -232.890625 183.94140625 C-236.38377172 177.82839949 -241.61303746 173.38473695 -247 169 C-249.34442809 165.48335786 -249.33433725 164.13778339 -249 160 C-248.12963867 157.25854492 -248.12963867 157.25854492 -246.91796875 154.48046875 C-246.48033203 153.45759766 -246.04269531 152.43472656 -245.59179688 151.38085938 C-245.12837891 150.32705078 -244.66496094 149.27324219 -244.1875 148.1875 C-237.54707406 134.61997498 -237.54707406 134.61997498 -236 120 C-237.47993156 117.43661311 -237.47993156 117.43661311 -240 116 C-244.64451328 115.30826398 -247.21207852 116.32617307 -251 119 C-248.79395172 97.04094474 -239.28889167 76.67470908 -228 58 C-227.67 58 -227.34 58 -227 58 C-226.731875 59.093125 -226.46375 60.18625 -226.1875 61.3125 C-225.01260267 65.42267084 -225.01260267 65.42267084 -222 68 C-218.00439384 68.42506449 -215.39590713 68.11994985 -212 66 C-210.42618716 64.08377852 -210.42618716 64.08377852 -209 61.75 C-185.83461971 27.64267413 -149.99136284 14.9190929 -110.875 7.375 C-106.58716708 6.56143542 -102.29468885 5.77648361 -98 5 C-96.66593333 4.75382983 -95.33186762 4.50765446 -93.99780273 4.26147461 C-84.13715771 2.46000169 -74.26971855 0.96745351 -64.3125 -0.1875 C-63.56930511 -0.27404846 -62.82611023 -0.36059692 -62.06039429 -0.44976807 C-41.52990344 -2.78749405 -20.41678229 -3.75895361 0 0 Z " fill="#E7ECFC" transform="translate(301,19)"/>
<path d="M0 0 C2.53497918 1.98182045 4.98444821 4.03695111 7.42578125 6.1328125 C8.286875 6.83664063 9.14796875 7.54046875 10.03515625 8.265625 C33.03252488 27.87320808 47.01497577 57.18604181 49.42578125 87.1328125 C50.04791801 100.10382252 49.88051461 112.55368256 46.42578125 125.1328125 C46.25949219 125.76171387 46.09320313 126.39061523 45.921875 127.03857422 C39.90795308 149.45157026 28.72016178 167.694381 12.42578125 184.1328125 C11.62527344 184.94621094 10.82476562 185.75960937 10 186.59765625 C-10.93940166 206.62205884 -41.41487488 216.75937949 -70.01171875 217.6328125 C-104.16385547 216.49060057 -133.6710197 203.42154702 -157.57421875 179.1328125 C-170.40021377 165.28445556 -179.04493925 149.45316574 -184.82421875 131.5703125 C-185.07059082 130.81540527 -185.31696289 130.06049805 -185.57080078 129.28271484 C-194.85163625 99.34929457 -189.74102685 67.39770828 -175.53271484 39.99975586 C-159.38906912 10.32061988 -132.49806693 -9.0118139 -100.6484375 -18.859375 C-66.56451037 -27.86251222 -28.51282568 -20.68153365 0 0 Z " fill="#A3C1F7" transform="translate(398.57421875,81.8671875)"/>
<path d="M0 0 C-3.48360493 2.83003242 -7.05200455 5.49424094 -10.6875 8.125 C-38.87580069 29.12192052 -53.63027351 62.42620484 -61.91015625 95.65234375 C-64.95749702 107.80213096 -68.94537641 120.11600969 -74.6875 131.28125 C-76.05128197 134.10622694 -76.60815184 136.32899474 -76.9375 139.4375 C-77.04964844 140.32308594 -77.16179687 141.20867187 -77.27734375 142.12109375 C-76.53899678 149.78534328 -70.68496539 154.58574408 -65.33398438 159.4609375 C-61.66130721 162.94468146 -59.36404277 165.98966392 -58 171 C-58.29351398 178.17036884 -61.93441274 184.49808405 -65.25 190.6875 C-65.77577637 191.68064209 -66.30155273 192.67378418 -66.84326172 193.69702148 C-75.97513348 210.66023003 -86.57691242 227.05686416 -98.5078125 242.19921875 C-105.96269114 251.36617733 -105.96269114 251.36617733 -107.6875 262.625 C-102.73152231 269.60007972 -95.90592339 273.40169189 -88.3684082 277.0715332 C-84.17602407 279.15928715 -81.10616416 281.39246983 -78 285 C-75.82047034 291.53858898 -75.84287186 297.88615121 -78.78515625 304.171875 C-79.85885374 306.30638658 -80.97836305 308.39921994 -82.15405273 310.47924805 C-85.15496102 315.47892908 -85.15496102 315.47892908 -85 321 C-82.85346145 323.01975125 -80.88704577 324.63759782 -78.5 326.3125 C-77.87996094 326.76689453 -77.25992188 327.22128906 -76.62109375 327.68945312 C-75.09120586 328.80744812 -73.54691473 329.90568532 -72 331 C-73.859375 336.7421875 -73.859375 336.7421875 -75.125 339.0625 C-76.28305048 341.62675463 -76.37350633 343.20499759 -76 346 C-73.99152739 347.99422545 -73.99152739 347.99422545 -71.3125 349.5625 C-70.39984375 350.160625 -69.4871875 350.75875 -68.546875 351.375 C-67.70640625 351.91125 -66.8659375 352.4475 -66 353 C-61.84376597 355.91820688 -59.67797189 358.14271294 -58 363 C-57.42386431 368.63532719 -57.89678535 373.91233193 -59.0625 379.4375 C-60.91461559 388.80467452 -59.45063506 396.97194849 -55.83984375 405.72265625 C-55 408 -55 408 -55 411 C-60.82004164 411.30631798 -64.80319786 410.99815508 -70 408 C-75.82028215 401.20967083 -77.46726533 393.28051928 -77.23828125 384.54296875 C-77 382 -77 382 -76 378.6875 C-74.01172297 371.35572844 -73.47306958 362.98573379 -77 356.0625 C-80.73018252 350.36626687 -85.81890206 345.84963758 -92 343 C-90.14393939 338.22727273 -90.14393939 338.22727273 -88.8125 336.125 C-87.53359571 332.78017339 -88.16076535 330.44122853 -89 327 C-91.42266378 324.3174782 -91.42266378 324.3174782 -94.5 322.1875 C-99.94438723 318.11122554 -99.94438723 318.11122554 -101 316 C-100.2236455 314.42190612 -99.43697971 312.84797122 -98.59667969 311.30297852 C-93.60088684 301.98952806 -91.67502044 292.83024203 -94.75390625 282.4609375 C-98.23983023 275.79780605 -105.47318286 272.57633957 -111.75878906 268.99902344 C-112.96393847 268.30841761 -114.16548465 267.61148457 -115.36328125 266.90820312 C-117.04799029 265.92016423 -118.74638791 264.95557768 -120.4453125 263.9921875 C-123 262 -123 262 -124.125 259.64453125 C-123.94699607 255.87863555 -122.11514395 253.6785909 -119.875 250.8125 C-119.42415039 250.20647949 -118.97330078 249.60045898 -118.50878906 248.97607422 C-117.01891203 246.97389391 -115.51068407 244.98651628 -114 243 C-100.31279416 224.90052876 -88.56444282 205.59848517 -79 185 C-78.44441406 183.80375 -77.88882813 182.6075 -77.31640625 181.375 C-74.8122083 174.95474176 -75.17805715 168.27499628 -77.890625 161.94140625 C-81.38377172 155.82839949 -86.61303746 151.38473695 -92 147 C-94.34442809 143.48335786 -94.33433725 142.13778339 -94 138 C-93.12963867 135.25854492 -93.12963867 135.25854492 -91.91796875 132.48046875 C-91.48033203 131.45759766 -91.04269531 130.43472656 -90.59179688 129.38085938 C-90.12837891 128.32705078 -89.66496094 127.27324219 -89.1875 126.1875 C-82.54707406 112.61997498 -82.54707406 112.61997498 -81 98 C-82.47993156 95.43661311 -82.47993156 95.43661311 -85 94 C-89.64451328 93.30826398 -92.21207852 94.32617307 -96 97 C-93.79395172 75.04094474 -84.28889167 54.67470908 -73 36 C-72.67 36 -72.34 36 -72 36 C-71.731875 37.093125 -71.46375 38.18625 -71.1875 39.3125 C-70.01260267 43.42267084 -70.01260267 43.42267084 -67 46 C-63.00439384 46.42506449 -60.39590713 46.11994985 -57 44 C-55.42618716 42.08377852 -55.42618716 42.08377852 -54 39.75 C-45.6663882 27.48008646 -17.64314599 -6.53449851 0 0 Z " fill="#FCFDFE" transform="translate(146,41)"/>
<path d="M0 0 C6.55282207 1.25188242 12.18554588 3.10742444 18.1875 6 C19.01266113 6.39662842 19.83782227 6.79325684 20.68798828 7.2019043 C28.42474547 11.03279134 35.32418972 15.54070634 42 21 C42.54317871 21.44150391 43.08635742 21.88300781 43.64599609 22.33789062 C67.47748876 42.09266486 82.58405895 70.8117733 85.80151367 101.53442383 C86.90083429 115.19006831 86.63826374 128.75261226 83 142 C82.83371094 142.62890137 82.66742188 143.25780273 82.49609375 143.90576172 C76.48217183 166.31875776 65.29438053 184.5615685 49 201 C48.19949219 201.81339844 47.39898437 202.62679687 46.57421875 203.46484375 C33.78638396 215.6938824 17.0330245 224.44032291 0 229 C0 228.34 0 227.68 0 227 C0.64324219 226.68289063 1.28648437 226.36578125 1.94921875 226.0390625 C10.04778009 221.85692384 16.98327865 216.7532169 24 211 C24.87785156 210.28972656 25.75570313 209.57945312 26.66015625 208.84765625 C48.21495759 190.50387128 63.59519416 161.03437536 67 133 C67.10957031 132.18273437 67.21914063 131.36546875 67.33203125 130.5234375 C71.11193192 97.15951426 63.17079897 63.30759277 42.2578125 36.7109375 C38.62780921 32.35242143 34.88542251 28.13188588 31 24 C30.4740625 23.40960938 29.948125 22.81921875 29.40625 22.2109375 C21.29933134 13.48359139 10.55850179 6.37186933 0 1 C0 0.67 0 0.34 0 0 Z " fill="#7EABFA" transform="translate(362,65)"/>
<path d="M0 0 C9.59453303 5.0022779 9.59453303 5.0022779 13 9 C12.69707031 9.76699219 12.39414062 10.53398437 12.08203125 11.32421875 C9.29881321 18.69760563 7.09143175 26.08475892 5.25 33.75 C4.93446167 35.04296997 4.93446167 35.04296997 4.61254883 36.36206055 C-3.15401522 69.66775545 2.4392679 106.7367521 12 139 C12.23074219 139.89074219 12.46148437 140.78148437 12.69921875 141.69921875 C15.95724685 153.92201207 21.53092694 166.05053359 27.87109375 176.96875 C29 179 29 179 30 182 C-28.74 182 -87.48 182 -148 182 C-148 181.67 -148 181.34 -148 181 C-94.54 181 -41.08 181 14 181 C10.37 174.73 6.74 168.46 3 162 C1.38869012 158.54375235 -0.05457847 155.36219374 -1.3125 151.8125 C-1.62678955 150.95052002 -1.9410791 150.08854004 -2.26489258 149.20043945 C-14.44669516 114.6961563 -21.72471249 73.0924868 -13 37 C-12.83371094 36.28021973 -12.66742188 35.56043945 -12.49609375 34.81884766 C-9.62858129 22.65581565 -5.08860286 11.38937911 0 0 Z " fill="#A3C2F7" transform="translate(377,313)"/>
<path d="M0 0 C2.6875 2.0625 2.6875 2.0625 4 5 C4 8.75737281 3.7440814 11.02897377 1.4375 14.0390625 C-1.75050333 16.6037703 -5.15286175 17.62334596 -9 18.8125 C-33.33450453 26.90068515 -48.61894857 43.7623638 -60.25 66.0625 C-63.80351383 73.41856098 -66.25219589 80.92030685 -68.21484375 88.83984375 C-68.53473267 90.11589478 -68.53473267 90.11589478 -68.86108398 91.41772461 C-69.27957959 93.10913768 -69.68457617 94.80396139 -70.07446289 96.50219727 C-71.17772113 101.00180568 -72.02980583 104.20753134 -76 107 C-78.76643661 107.78346349 -81.20625771 107.64691164 -84 107 C-86.5 105 -86.5 105 -88 102 C-88.39060317 95.87613673 -87.44861801 90.69519175 -85.8125 84.8125 C-85.4719458 83.56303589 -85.4719458 83.56303589 -85.12451172 82.28833008 C-79.06286669 60.57825726 -68.85438331 41.12447502 -53 25 C-52.25363281 24.24074219 -51.50726563 23.48148438 -50.73828125 22.69921875 C-38.52705075 11.0127684 -17.62983339 -2.5436078 0 0 Z " fill="#A4C2F7" transform="translate(171,51)"/>
<path d="M0 0 C5.3068543 0.68475539 7.95345373 3.01591706 11.875 6.5 C12.72191406 7.20769531 12.72191406 7.20769531 13.5859375 7.9296875 C26.78994459 19.89388172 36.08834406 39.3219931 39.875 56.5 C34.595 56.5 29.315 56.5 23.875 56.5 C22.885 53.2825 22.885 53.2825 21.875 50 C16.19286362 32.54689791 6.50033359 16.62982668 -5.125 2.5 C-3.125 0.5 -3.125 0.5 0 0 Z " fill="#FCFDFE" transform="translate(189.125,438.5)"/>
<path d="M0 0 C3.43139587 0.57227433 6.18414698 1.41765617 9.2578125 3.0390625 C10.04373779 3.45172363 10.82966309 3.86438477 11.6394043 4.28955078 C12.45965088 4.73024902 13.27989746 5.17094727 14.125 5.625 C15.38727417 6.29571533 15.38727417 6.29571533 16.67504883 6.97998047 C22.98376857 10.36751373 29.07192614 13.97690268 35 18 C28.21164684 24.97182217 28.21164684 24.97182217 24.984375 25.046875 C15.45026178 23.78010471 15.45026178 23.78010471 11 22 C8.00306402 17.76182622 5.98973716 12.8845053 3.8125 8.1875 C3.44447266 7.39923828 3.07644531 6.61097656 2.69726562 5.79882812 C1.79575279 3.8670149 0.89754274 1.93366097 0 0 Z " fill="#A4C2F7" transform="translate(346,24)"/>
<path d="M0 0 C2.4375 1.5625 2.4375 1.5625 4 4 C4.61113838 6.80777729 4.65466318 9.19758219 4 12 C1.28707652 15.2883921 -0.34816929 15.90851499 -4.5625 16.5 C-8 16 -8 16 -10.4375 14.625 C-12.85724674 10.55982548 -12.89522401 6.60176555 -12 2 C-8.38212245 -1.83714286 -4.85923372 -1.32524556 0 0 Z " fill="#4890FF" transform="translate(71,102)"/>
<path d="M0 0 C2.5 1.5 2.5 1.5 4 4 C4.79126072 8.02224201 4.66872394 10.95679065 2.4375 14.4375 C-0.86357636 16.55357459 -3.07466612 17.06886551 -7 17 C-9.98170781 15.03334166 -11.64103498 13.59330089 -12.4453125 10.0234375 C-12.6333015 6.67723326 -12.22201079 4.37001798 -10.5 1.5 C-6.96411027 -0.62153384 -4.02098277 -0.791013 0 0 Z " fill="#A5C3F7" transform="translate(85,171)"/>
<path d="M0 0 C1.50156874 3.00313748 1.09281204 5.79067522 1.0625 9.125 C1.05347656 10.40632813 1.04445313 11.68765625 1.03515625 13.0078125 C1.02355469 13.99523437 1.01195312 14.98265625 1 16 C-0.41875765 15.23302204 -1.83491452 14.46123222 -3.25 13.6875 C-4.03890625 13.25824219 -4.8278125 12.82898438 -5.640625 12.38671875 C-7.91454767 11.05022446 -9.99505799 9.71523708 -12 8 C-12 7.34 -12 6.68 -12 6 C-9.8828125 4.4921875 -9.8828125 4.4921875 -7.125 2.875 C-6.22007812 2.33617187 -5.31515625 1.79734375 -4.3828125 1.2421875 C-2 0 -2 0 0 0 Z " fill="#9EBEF7" transform="translate(403,294)"/>
<path d="M0 0 C3.02940618 1.51470309 3.64960546 3.9403821 5.125 6.9375 C5.66382813 8.01902344 6.20265625 9.10054687 6.7578125 10.21484375 C8 13 8 13 8 15 C3.05 15 -1.9 15 -7 15 C-5.57148766 11.42871914 -4.10525515 8.10247728 -2.375 4.6875 C-1.70597656 3.36298828 -1.70597656 3.36298828 -1.0234375 2.01171875 C-0.68570312 1.34785156 -0.34796875 0.68398438 0 0 Z " fill="#9EBEF7" transform="translate(328,28)"/>
<path d="M0 0 C3.84762566 3.4201117 6.60634022 7.46774256 9 12 C9 12.66 9 13.32 9 14 C3.72 13.67 -1.56 13.34 -7 13 C-1.125 1.125 -1.125 1.125 0 0 Z " fill="#9EBFF7" transform="translate(450,241)"/>
<path d="M0 0 C4.0166908 3.54552473 5.71041253 8.23518284 8 13 C0.08 13.495 0.08 13.495 -8 14 C-6.4655333 10.16383324 -5.15341734 7.50606439 -2.875 4.1875 C-2.33617187 3.39730469 -1.79734375 2.60710937 -1.2421875 1.79296875 C-0.83226562 1.20128906 -0.42234375 0.60960937 0 0 Z " fill="#9EBFF7" transform="translate(206,241)"/>
<path d="M0 0 C4.17437899 1.39145966 7.19196096 2.50446237 10.875 4.625 C12.04675781 5.29402344 12.04675781 5.29402344 13.2421875 5.9765625 C14.11230469 6.48316406 14.11230469 6.48316406 15 7 C12.24982823 9.19134691 9.59577342 10.78177782 6.375 12.1875 C5.59898437 12.53167969 4.82296875 12.87585938 4.0234375 13.23046875 C2 14 2 14 0 14 C0 9.38 0 4.76 0 0 Z " fill="#9FBFF7" transform="translate(465,172)"/>
<path d="M0 0 C5.28 0 10.56 0 16 0 C10.375 10.75 10.375 10.75 7 13 C5.82786955 11.21190303 4.66244474 9.41940875 3.5 7.625 C2.8503125 6.62726563 2.200625 5.62953125 1.53125 4.6015625 C0 2 0 2 0 0 Z " fill="#9FBFF7" transform="translate(443,104)"/>
<path d="M0 0 C0 4.62 0 9.24 0 14 C-3.81190657 12.72936448 -7.26150712 11.51749676 -10.875 9.875 C-12.04675781 9.34519531 -12.04675781 9.34519531 -13.2421875 8.8046875 C-13.82226562 8.53914062 -14.40234375 8.27359375 -15 8 C-12.61753661 5.31874582 -10.1454496 3.88576541 -6.9375 2.3125 C-5.62072266 1.65701172 -5.62072266 1.65701172 -4.27734375 0.98828125 C-2 0 -2 0 0 0 Z " fill="#A0BFF7" transform="translate(192,172)"/>
<path d="M0 0 C0.02715383 1.74991334 0.04646551 3.49994945 0.0625 5.25 C0.07410156 6.22453125 0.08570313 7.1990625 0.09765625 8.203125 C0.01195577 10.65758678 -0.29293934 12.66168914 -1 15 C-5.49797113 13.31326082 -9.72886302 11.18326108 -14 9 C-10.73787201 5.33010602 -5.2007339 0 0 0 Z " fill="#9EBFF7" transform="translate(404,49)"/>
<path d="M0 0 C5.28 0 10.56 0 16 0 C14.58001139 3.54997152 13.3878411 6.18729934 11.375 9.3125 C10.92898437 10.00988281 10.48296875 10.70726563 10.0234375 11.42578125 C9.51683594 12.20501953 9.51683594 12.20501953 9 13 C4.72226425 9.35600288 2.59493571 4.90154523 0 0 Z " fill="#9FBFF7" transform="translate(198,104)"/>
<path d="M0 0 C4.29 0 8.58 0 13 0 C12.16184862 4.19075691 11.49330151 6.28073843 9.4375 9.8125 C8.98246094 10.60269531 8.52742188 11.39289063 8.05859375 12.20703125 C7.53458984 13.09455078 7.53458984 13.09455078 7 14 C4.66714622 11.86099367 3.2131241 9.83344647 1.8125 7 C1.46832031 6.319375 1.12414062 5.63875 0.76953125 4.9375 C0 3 0 3 0 0 Z " fill="#9FBFF7" transform="translate(322,316)"/>
<path d="M0 0 C3.96 1.98 7.92 3.96 12 6 C10.68919284 9.93242148 8.98697486 10.54408891 5.5 12.6875 C4.4996875 13.31011719 3.499375 13.93273437 2.46875 14.57421875 C0 16 0 16 -1 16 C-0.67 10.72 -0.34 5.44 0 0 Z " fill="#A0C0F7" transform="translate(254,294)"/>
<path d="M0 0 C11.38392857 7.09821429 11.38392857 7.09821429 14 10 C12.21118264 11.00508801 10.41885304 12.00392736 8.625 13 C7.62726563 13.556875 6.62953125 14.11375 5.6015625 14.6875 C3 16 3 16 1 16 C0.67 10.72 0.34 5.44 0 0 Z " fill="#9FBFF7" transform="translate(253,48)"/>
<path d="M0 0 C-1.53223689 4.64924449 -4.07423595 8.02116641 -7.0625 11.8125 C-7.75182617 12.7087207 -7.75182617 12.7087207 -8.45507812 13.62304688 C-9.60820474 15.10467064 -10.80077678 16.55543306 -12 18 C-12.33 18 -12.66 18 -13 18 C-13.6006543 14.75646678 -13.83569463 13.13260383 -13 10 C-5.30878187 0 -5.30878187 0 0 0 Z " fill="#A0C0F7" transform="translate(433,270)"/>
<path d="M0 0 C3.48749314 2.78999451 6.50157221 5.25235831 9 9 C8.67 9.66 8.34 10.32 8 11 C6.65772182 9.73861805 5.32641323 8.46555441 4 7.1875 C3.2575 6.47980469 2.515 5.77210937 1.75 5.04296875 C0 3 0 3 0 0 Z " fill="#9FC2F8" transform="translate(420,75)"/>
</svg>
